<?xml version="1.0" encoding="UTF-8"?>
<svg width="33px" height="33px" viewBox="0 0 33 33" version="1.1" xmlns="http://www.w3.org/2000/svg" xmlns:xlink="http://www.w3.org/1999/xlink">
    <!-- Generator: Sketch 49.3 (51167) - http://www.bohemiancoding.com/sketch -->
    <title>Page 1</title>
    <desc>Created with Sketch.</desc>
    <defs>
        <polygon id="path-1" points="0 0 33 0 33 33 0 33"></polygon>
    </defs>
    <g id="Page-1" stroke="none" stroke-width="1" fill="none" fill-rule="evenodd">
        <g id="Desktop-HD-Copy-3" transform="translate(-149.000000, -24.000000)">
            <g id="Page-1" transform="translate(149.000000, 24.000000)">
                <mask id="mask-2" fill="white">
                    <use xlink:href="#path-1"></use>
                </mask>
                <g id="Clip-2"></g>
                <path d="M20.275802,19.6683112 L22.0912757,22.6393669 C20.7024246,23.195016 19.3343844,23.5484088 18.3513451,23.5484088 C17.988798,23.5484088 17.6273462,23.5139586 17.268085,23.4645058 C17.268085,23.4645058 16.1043198,23.1722344 15.556118,23.0355447 C13.487628,22.2720828 11.7132283,20.6984846 10.847387,18.6370264 C10.5527491,17.7896616 10.3873575,16.8567267 10.3873575,15.8560027 C10.3873575,11.6486277 13.2702093,8.54755009 17.1979853,8.54755009 C19.7303384,8.54755009 22.6997195,9.83276646 24.7506846,11.8253241 L30.4670993,4.78358309 C27.195413,1.86031318 21.9998174,0 17.2417976,0 C7.24436995,0 0,6.68723691 0,15.8560027 C0,23.5495201 4.87247955,29.5105237 12.0741325,31.2669305 C13.7959573,31.8036875 15.6667441,32.0965146 17.651443,32.0965146 C20.3124948,32.0965146 23.4412433,31.4680754 26.2507095,30.458461 L28.7157011,33 L33,19.8622327 L20.275802,19.6683112 Z" id="Fill-1" fill="#FFFFFF" mask="url(#mask-2)"></path>
            </g>
        </g>
    </g>
</svg>